<svg xmlns="http://www.w3.org/2000/svg" viewBox="0 0 512 512" role="img" aria-label="Reset">
  <defs>
    <linearGradient id="resetGradient" x1="112" y1="104" x2="410" y2="420" gradientUnits="userSpaceOnUse">
      <stop stop-color="#25d9bd"/>
      <stop offset=".52" stop-color="#19c6d4"/>
      <stop offset="1" stop-color="#2188f2"/>
    </linearGradient>
    <filter id="tileShadow" x="-20%" y="-20%" width="140%" height="140%">
      <feDropShadow dx="0" dy="18" stdDeviation="18" flood-color="#0f172a" flood-opacity=".12"/>
    </filter>
  </defs>
  <rect x="32" y="32" width="448" height="448" rx="96" fill="#fff" filter="url(#tileShadow)"/>
  <path d="M118 319a170 170 0 0 1 27-189" fill="none" stroke="url(#resetGradient)" stroke-width="34" stroke-linecap="round"/>
  <path d="M145 130a170 170 0 0 1 204-19" fill="none" stroke="url(#resetGradient)" stroke-width="34" stroke-linecap="round"/>
  <path d="M134 328a170 170 0 0 0 252 19" fill="none" stroke="url(#resetGradient)" stroke-width="34" stroke-linecap="round"/>
  <g fill="url(#resetGradient)">
    <circle cx="381" cy="142" r="12"/>
    <circle cx="401" cy="172" r="12"/>
    <circle cx="414" cy="207" r="12"/>
    <circle cx="417" cy="245" r="12"/>
    <circle cx="411" cy="283" r="12"/>
    <circle cx="396" cy="318" r="12"/>
  </g>
  <path d="M256 343c-8-8-54-49-86-84-29-32-36-78-5-109 26-26 70-23 91 10 21-33 65-36 91-10 31 31 24 77-5 109-32 35-78 76-86 84Z" fill="url(#resetGradient)"/>
  <path d="M200 235l41 42 76-83" fill="none" stroke="#fff" stroke-width="28" stroke-linecap="round" stroke-linejoin="round"/>
</svg>
