<svg xmlns="http://www.w3.org/2000/svg" viewBox="0 0 1024 1024">
  <defs>
    <linearGradient id="resetGradient" x1="220" y1="230" x2="820" y2="820" gradientUnits="userSpaceOnUse">
      <stop offset="0" stop-color="#24d6a5"/>
      <stop offset="0.52" stop-color="#20c8d7"/>
      <stop offset="1" stop-color="#2f6fed"/>
    </linearGradient>
    <filter id="softShadow" x="-20%" y="-20%" width="140%" height="140%">
      <feDropShadow dx="0" dy="16" stdDeviation="20" flood-color="#2f6fed" flood-opacity="0.16"/>
    </filter>
  </defs>
  <rect width="1024" height="1024" rx="216" fill="#f7f9fc"/>
  <g filter="url(#softShadow)">
    <path d="M512 803c-169 0-306-137-306-306 0-158 120-288 274-304 26-3 51-4 76-4" fill="none" stroke="url(#resetGradient)" stroke-width="62" stroke-linecap="round"/>
    <path d="M805 525c0 154-118 281-269 294" fill="none" stroke="url(#resetGradient)" stroke-width="62" stroke-linecap="round"/>
    <circle cx="647" cy="214" r="34" fill="#24d6a5"/>
    <circle cx="724" cy="263" r="34" fill="#24d0ad"/>
    <circle cx="783" cy="334" r="33" fill="#23c9b8"/>
    <circle cx="820" cy="421" r="33" fill="#25bac5"/>
    <path d="M512 702 340 530c-71-71-21-193 80-193 43 0 76 17 101 52 25-35 58-52 101-52 101 0 151 122 80 193L530 702a25 25 0 0 1-18 7 25 25 0 0 1-18-7Z" fill="url(#resetGradient)"/>
    <path d="m413 506 80 80 162-162" fill="none" stroke="#fff" stroke-width="56" stroke-linecap="round" stroke-linejoin="round"/>
  </g>
</svg>
